<?xml version="1.0" standalone="no"?>
<!DOCTYPE svg PUBLIC "-//W3C//DTD SVG 20010904//EN"
 "http://www.w3.org/TR/2001/REC-SVG-20010904/DTD/svg10.dtd">
<svg version="1.0" xmlns="http://www.w3.org/2000/svg"
 width="700.000000pt" height="700.000000pt" viewBox="0 0 700.000000 700.000000"
 preserveAspectRatio="xMidYMid meet">
<metadata>
Created by potrace 1.11, written by Peter Selinger 2001-2013
</metadata>
<g transform="translate(0.000000,700.000000) scale(0.100000,-0.100000)"
fill="#000000" stroke="none">
<path d="M732 4092 l-33 -3 3 -498 3 -498 30 -49 c24 -39 44 -56 96 -82 59
-30 73 -33 171 -36 91 -2 107 -1 110 13 2 9 3 177 2 374 0 196 2 357 4 357 2
0 57 -44 121 -97 63 -54 230 -194 371 -312 140 -117 279 -234 309 -260 94 -80
72 -75 319 -76 123 0 227 2 230 5 4 3 7 265 7 583 l0 577 -207 0 -206 0 -1
-351 c0 -193 -2 -353 -5 -356 -4 -5 -49 31 -216 174 -14 11 -131 110 -260 219
-129 108 -266 223 -304 255 -56 47 -77 59 -105 60 -160 3 -412 3 -439 1z"/>
<path d="M2599 4089 c-5 -3 -8 -243 -7 -585 l3 -579 763 0 762 0 1 37 c0 21 0
76 0 123 0 47 0 103 0 125 l-1 40 -558 0 -558 0 1 48 1 47 557 0 557 0 0 25
c3 140 1 293 -4 297 -3 3 -254 6 -558 7 l-552 1 -1 43 c-1 35 3 43 20 47 11 2
262 3 558 2 l537 -2 1 75 c1 158 0 243 -4 246 -6 7 -1508 10 -1518 3z"/>
<path d="M4239 4080 c-1 -20 -1 -258 0 -290 l1 -25 340 0 c336 1 340 1 341
-20 0 -11 1 -200 2 -419 l2 -400 203 0 c127 -1 202 3 203 9 1 6 2 190 3 410 1
220 4 405 8 411 5 7 119 10 347 10 253 -1 342 2 345 11 10 26 -7 131 -28 179
-13 28 -36 63 -52 77 -65 60 -20 57 -904 60 -714 2 -810 0 -811 -13z"/>
<path d="M5990 3383 c-113 -38 -180 -131 -175 -242 6 -139 116 -238 255 -228
76 5 115 22 164 74 115 120 64 334 -92 387 -44 15 -121 20 -152 9z"/>
</g>
</svg>
